<svg xmlns="http://www.w3.org/2000/svg" viewBox="0 0 24 24" fill="none" stroke="currentColor" stroke-width="2" stroke-linecap="round" stroke-linejoin="round">
  <defs>
    <mask id="sunMask">
      <rect width="24" height="24" fill="white"/>
      <path d="M18 10h-1.26A8 8 0 1 0 9 20h9a5 5 0 0 0 0-10z" fill="black"/>
    </mask>
  </defs>
  <!-- Sun partially visible (masked by cloud) -->
  <g mask="url(#sunMask)">
    <circle cx="7" cy="7" r="4"/>
    <line x1="7" y1="1" x2="7" y2="3"/>
    <line x1="7" y1="11" x2="7" y2="13"/>
    <line x1="1" y1="7" x2="3" y2="7"/>
    <line x1="11" y1="7" x2="13" y2="7"/>
    <line x1="2.41" y1="2.41" x2="4.83" y2="3.83"/>
    <line x1="10.17" y1="10.17" x2="11.59" y2="11.59"/>
    <line x1="2.41" y1="11.59" x2="4.83" y2="10.17"/>
    <line x1="10.17" y1="3.83" x2="11.59" y2="2.41"/>
  </g>
  <!-- Cloud on top -->
  <path d="M18 10h-1.26A8 8 0 1 0 9 20h9a5 5 0 0 0 0-10z"/>
</svg>
